<svg width="185" height="137" viewBox="0 0 185 137" fill="none" xmlns="http://www.w3.org/2000/svg">
<path d="M59.1798 75.2626L59.578 73.8164L59.1798 75.2626ZM96.6873 30.1898L98.1263 29.7664L96.6873 30.1898ZM0.377719 128.853L15.6769 136.973L15.0595 119.664L0.377719 128.853ZM181.837 0.456008C181.548 1.39976 181.235 2.36727 180.898 3.35591L183.738 4.32364C184.084 3.3063 184.407 2.30922 184.705 1.335L181.837 0.456008ZM178.766 9.08067C178.026 10.9145 177.214 12.7963 176.328 14.7122L179.051 15.971C179.958 14.0102 180.79 12.0828 181.548 10.2027L178.766 9.08067ZM173.624 20.2168C172.697 21.9958 171.71 23.7917 170.662 25.5946L173.256 27.1022C174.327 25.2585 175.337 23.422 176.284 21.6026L173.624 20.2168ZM167.459 30.8215C166.363 32.5198 165.213 34.2155 164.007 35.9002L166.447 37.6456C167.681 35.9209 168.858 34.1857 169.98 32.4483L167.459 30.8215ZM160.322 40.7946C159.064 42.3819 157.755 43.9514 156.395 45.496L158.647 47.4783C160.042 45.8938 161.384 44.2846 162.673 42.6582L160.322 40.7946ZM152.225 49.9839C150.805 51.4319 149.335 52.8493 147.817 54.2295L149.835 56.4492C151.397 55.0294 152.907 53.5724 154.367 52.0851L152.225 49.9839ZM143.176 58.2042C141.598 59.475 139.973 60.7039 138.301 61.8849L140.031 64.3354C141.756 63.117 143.432 61.85 145.057 60.5408L143.176 58.2042ZM133.2 65.2422C131.474 66.2977 129.703 67.3015 127.886 68.248L129.272 70.9086C131.152 69.9296 132.983 68.8919 134.765 67.8015L133.2 65.2422ZM122.388 70.8706C120.541 71.6722 118.651 72.415 116.717 73.0935L117.71 75.9243C119.713 75.2215 121.671 74.4524 123.583 73.6225L122.388 70.8706ZM110.899 74.8999C108.962 75.425 106.984 75.8865 104.964 76.2796L105.537 79.2244C107.628 78.8173 109.677 78.3394 111.684 77.7954L110.899 74.8999ZM98.9416 77.2299C96.9533 77.4718 94.9275 77.6483 92.8636 77.7556L93.0194 80.7516C95.152 80.6407 97.2468 80.4582 99.3038 80.208L98.9416 77.2299ZM86.7606 77.8686C84.7609 77.8398 82.7275 77.747 80.6601 77.5867L80.4282 80.5777C82.5578 80.7428 84.6542 80.8386 86.7175 80.8683L86.7606 77.8686ZM74.5853 76.9321C72.6048 76.6597 70.5946 76.3263 68.5546 75.9293L67.9815 78.874C70.0752 79.2815 72.1401 79.624 74.1765 79.9041L74.5853 76.9321ZM62.5805 74.6035C61.5864 74.3561 60.5856 74.0939 59.578 73.8164L58.7816 76.7087C59.8128 76.9927 60.8376 77.2613 61.856 77.5147L62.5805 74.6035ZM59.578 73.8164C58.5975 73.5464 57.6412 73.273 56.7086 72.9964L55.8554 75.8725C56.8074 76.1549 57.7827 76.4337 58.7816 76.7087L59.578 73.8164ZM51.3781 71.2929C49.4598 70.6319 47.6626 69.956 45.9816 69.2672L44.8441 72.0432C46.5819 72.7552 48.4327 73.4511 50.4008 74.1292L51.3781 71.2929ZM40.8001 66.9257C38.9941 66.0223 37.3678 65.1035 35.9101 64.1739L34.297 66.7034C35.8514 67.6946 37.5692 68.664 39.458 69.6088L40.8001 66.9257ZM31.486 60.89C29.9771 59.5651 28.7798 58.2363 27.8559 56.9173L25.3987 58.6383C26.4779 60.1792 27.8428 61.6834 29.5065 63.1443L31.486 60.89ZM25.637 52.2123C25.2072 50.514 25.1613 48.8127 25.4526 47.1167L22.4959 46.6089C22.1371 48.6978 22.191 50.8237 22.7287 52.9483L25.637 52.2123ZM27.2311 42.1748C28.0499 40.6686 29.1107 39.175 30.3857 37.7117L28.1238 35.741C26.7284 37.3425 25.5345 39.0144 24.5954 40.742L27.2311 42.1748ZM34.3322 33.8438C35.71 32.6711 37.2123 31.5391 38.8163 30.4584L37.14 27.9704C35.4517 29.1079 33.8587 30.3072 32.3877 31.5592L34.3322 33.8438ZM43.6424 27.527C45.2732 26.6332 46.9678 25.7932 48.7071 25.0148L47.4817 22.2765C45.6713 23.0867 43.9044 23.9624 42.2005 24.8962L43.6424 27.527ZM53.9644 22.8997C55.7475 22.2599 57.5536 21.6884 59.3644 21.1923L58.5717 18.2989C56.6853 18.8157 54.8056 19.4106 52.9513 20.0759L53.9644 22.8997ZM64.8723 19.9225C66.7618 19.5705 68.6327 19.3101 70.464 19.1489L70.2009 16.1605C68.2671 16.3307 66.3004 16.6048 64.3229 16.9732L64.8723 19.9225ZM76.0555 18.9773C77.9829 19.0382 79.8257 19.2325 81.5567 19.5679L82.1273 16.6227C80.2203 16.2532 78.2168 16.0441 76.1502 15.9788L76.0555 18.9773ZM86.7434 21.1592C88.4288 21.9097 89.917 22.8555 91.1784 24.0054L93.1995 21.7884C91.673 20.3968 89.9057 19.2833 87.9637 18.4186L86.7434 21.1592ZM94.2887 28.1408C94.6661 28.9056 94.988 29.7286 95.2483 30.6132L98.1263 29.7664C97.819 28.7218 97.4351 27.7376 96.979 26.8133L94.2887 28.1408ZM95.2483 30.6132C95.5068 31.4916 95.7221 32.3833 95.8954 33.2874L98.8418 32.7224C98.6506 31.7254 98.4127 30.7395 98.1263 29.7664L95.2483 30.6132ZM96.4412 38.7797C96.4652 40.5948 96.3447 42.45 96.0875 44.338L99.0601 44.743C99.3358 42.7189 99.4671 40.7148 99.441 38.7401L96.4412 38.7797ZM94.9815 49.8377C94.515 51.6104 93.9415 53.4028 93.2677 55.209L96.0784 56.2577C96.7845 54.3651 97.389 52.4774 97.8827 50.6011L94.9815 49.8377ZM91.0568 60.4399C90.2641 62.123 89.3923 63.8115 88.447 65.5004L91.0648 66.9657C92.0423 65.2193 92.9465 63.4685 93.7709 61.7181L91.0568 60.4399ZM85.5118 70.384C84.4974 71.9643 83.4236 73.5402 82.2953 75.1076L84.7301 76.8602C85.8881 75.2516 86.9919 73.6317 88.0364 72.0046L85.5118 70.384ZM78.8382 79.6719C77.6598 81.1539 76.436 82.6241 75.1714 84.079L77.4355 86.0471C78.728 84.5602 79.9798 83.0564 81.1863 81.539L78.8382 79.6719ZM71.3187 88.3304C70.0119 89.7152 68.6705 91.0819 67.2985 92.4272L69.3989 94.5692C70.7981 93.1973 72.1667 91.8029 73.5006 90.3894L71.3187 88.3304ZM63.1248 96.3688C61.7103 97.6556 60.27 98.9181 58.808 100.153L60.7439 102.445C62.2339 101.186 63.7018 99.8996 65.1436 98.5879L63.1248 96.3688ZM54.3543 103.777C52.8426 104.962 51.313 106.115 49.7698 107.234L51.5308 109.663C53.1045 108.522 54.6639 107.346 56.2048 106.139L54.3543 103.777ZM45.0586 110.514C43.4553 111.585 41.8423 112.616 40.2239 113.603L41.7868 116.164C43.4407 115.155 45.0881 114.102 46.7244 113.009L45.0586 110.514ZM35.2683 116.483C33.5759 117.417 31.883 118.3 30.1944 119.128L31.516 121.821C33.2493 120.971 34.9848 120.066 36.7176 119.11L35.2683 116.483ZM25.0066 121.507C23.2199 122.267 21.4449 122.96 19.6874 123.583L20.6888 126.411C22.508 125.767 24.3409 125.05 26.1813 124.267L25.0066 121.507ZM14.256 125.292C12.3862 125.804 10.5463 126.225 8.74412 126.55L9.27685 129.502C11.1729 129.16 13.0993 128.719 15.0479 128.185L14.256 125.292Z" fill="#FFCC00"/>
</svg>
